<?xml version="1.0" encoding="UTF-8" standalone="no"?>
<!-- Created with Inkscape (http://www.inkscape.org/) -->

<svg
   width="38.848"
   height="76.480003"
   viewBox="0 0 10.278533 20.235334"
   version="1.1"
   id="svg1"
   inkscape:version="1.4.2 (ebf0e940d0, 2025-05-08)"
   sodipodi:docname="ad_assegai_portrait.svg"
   xml:space="preserve"
   xmlns:inkscape="http://www.inkscape.org/namespaces/inkscape"
   xmlns:sodipodi="http://sodipodi.sourceforge.net/DTD/sodipodi-0.dtd"
   xmlns:xlink="http://www.w3.org/1999/xlink"
   xmlns="http://www.w3.org/2000/svg"
   xmlns:svg="http://www.w3.org/2000/svg"><sodipodi:namedview
     id="namedview1"
     pagecolor="#ffffff"
     bordercolor="#d82222"
     borderopacity="1"
     inkscape:showpageshadow="0"
     inkscape:pageopacity="0"
     inkscape:pagecheckerboard="0"
     inkscape:deskcolor="#505050"
     inkscape:document-units="px"
     inkscape:zoom="7.5162154"
     inkscape:cx="-26.742182"
     inkscape:cy="36.254948"
     inkscape:window-width="1900"
     inkscape:window-height="995"
     inkscape:window-x="10"
     inkscape:window-y="75"
     inkscape:window-maximized="1"
     inkscape:current-layer="g1"><inkscape:page
       x="0"
       y="0"
       width="10.278533"
       height="20.235334"
       id="page1"
       margin="0"
       bleed="0" /></sodipodi:namedview><defs
     id="defs1" /><g
     inkscape:label="Layer 1"
     inkscape:groupmode="layer"
     id="layer1" /><g
     id="g1"
     inkscape:groupmode="layer"
     inkscape:label="1"
     transform="matrix(0.26458334,0,0,0.26458333,102.60416,0)"><rect
       style="fill:#365f9a;fill-opacity:1;stroke:none;stroke-width:5.89095;stroke-linecap:round;stroke-linejoin:round;paint-order:markers fill stroke"
       id="rect18"
       width="44.969048"
       height="82.22374"
       x="-436.78445"
       y="-3.0104802" /><g
       id="g9"
       transform="translate(0,25.646551)"
       style="fill:#c1c66b;fill-opacity:1"><path
         id="path2"
         d="m -357.98249,32.78044 v -2.007721 h -4.02199 v -6.68749 h 4.02199 v -2.008827 l 5.35183,5.35252 z m 0.98302,-14.453666 h -6.96779 c -1.27225,0 -2.30242,1.030684 -2.30242,2.302032 h -5.4e-4 v 13.727343 h 0.007 c 0.0629,1.21507 1.0649,2.18214 2.29538,2.18214 h 6.96828 c 4.3299,0 7.85226,-3.522338 7.85226,-7.851907 V 26.17842 c 0,-4.329285 -3.52236,-7.851646 -7.85175,-7.851646"
         style="fill:#c1c66b;fill-opacity:1;fill-rule:nonzero;stroke:none;stroke-width:0.0257671" /><path
         id="path3"
         d="m -375.19759,27.157467 v 4.022578 h -6.68736 v -4.022578 h -2.00852 l 5.3527,-5.351621 5.35121,5.351621 z m -2.08603,-8.834043 h -2.50775 c -4.32957,0 -7.85192,3.522362 -7.85192,7.851981 v 7.954277 c 0,1.271447 1.03068,2.302137 2.30193,2.302137 v 3.3e-4 h 13.72802 v -0.006 c 1.21438,-0.0632 2.18165,-1.06521 2.18165,-2.296205 v -7.954586 c 0,-4.3298 -3.52184,-7.852161 -7.85193,-7.852161"
         style="fill:#c1c66b;fill-opacity:1;fill-rule:nonzero;stroke:none;stroke-width:0.0257671" /><path
         id="path4"
         d="m -368.44228,35.405639 h 0.14494 c 0.25012,0 0.45445,0.20382 0.45445,0.45446 v 0.44167 c 0,0.0732 -0.0599,0.13286 -0.13386,0.13286 v 0 h -0.79417 v 0 c -0.0704,-0.004 -0.12631,-0.0614 -0.12631,-0.13286 v -0.44167 c 0,-0.25064 0.20382,-0.45446 0.45495,-0.45446"
         style="fill:#c1c66b;fill-opacity:1;fill-rule:nonzero;stroke:none;stroke-width:0.0257671" /><path
         id="path5"
         d="m -349.58705,35.405639 h 0.14506 c 0.25098,0 0.45428,0.20382 0.45428,0.45446 v 0.44167 c 0,0.0732 -0.0598,0.13286 -0.1327,0.13286 v 0 h -0.79466 v 0 c -0.0711,-0.004 -0.12677,-0.0614 -0.12677,-0.13286 v -0.44167 c 0,-0.25064 0.20433,-0.45446 0.45479,-0.45446"
         style="fill:#c1c66b;fill-opacity:1;fill-rule:nonzero;stroke:none;stroke-width:0.0257671" /></g><text
       xml:space="preserve"
       style="font-style:normal;font-variant:normal;font-weight:normal;font-stretch:normal;font-size:66.6667px;line-height:125%;font-family:'Assegai Rounded';-inkscape-font-specification:'Assegai Rounded';text-align:start;letter-spacing:0px;writing-mode:lr-tb;direction:ltr;text-anchor:start;fill:#adb345;fill-opacity:1;stroke:#000000;stroke-width:5;stroke-linecap:round;stroke-linejoin:round;paint-order:markers fill stroke"
       x="-599.60394"
       y="394.87958"
       id="text2"><tspan
         sodipodi:role="line"
         x="-599.60394"
         y="394.87958"
         id="tspan3"
         style="fill:#adb345;fill-opacity:1;stroke:none" /></text><text
       xml:space="preserve"
       style="font-style:normal;font-variant:normal;font-weight:normal;font-stretch:normal;font-size:6.76456px;line-height:75%;font-family:'Assegai Rounded';-inkscape-font-specification:'Assegai Rounded';text-align:start;letter-spacing:0px;writing-mode:lr-tb;direction:ltr;text-anchor:start;white-space:pre;inline-size:40.8139;display:inline;fill:#adb345;fill-opacity:1;stroke:none;stroke-width:0.507341;stroke-linecap:round;stroke-linejoin:round;paint-order:markers fill stroke"
       x="-387.79526"
       y="43.576115"
       id="text4"
       transform="translate(-90.502555,25.473249)"><tspan
         x="-387.79526"
         y="43.576115"
         id="tspan6"><tspan
           style="line-height:75%"
           id="tspan1">RECRvITING</tspan><tspan
           style="line-height:75%"
           id="tspan2">.</tspan><tspan
           style="line-height:75%"
           id="tspan4">
</tspan></tspan><tspan
         x="-387.79526"
         y="48.757135"
         id="tspan11"><tspan
           style="line-height:75%"
           id="tspan8">NOW</tspan><tspan
           style="line-height:75%"
           id="tspan10">.
</tspan></tspan></text><text
       xml:space="preserve"
       style="font-style:normal;font-variant:normal;font-weight:normal;font-stretch:normal;font-size:66.6667px;line-height:75%;font-family:TRACEROUTE;-inkscape-font-specification:TRACEROUTE;text-align:center;letter-spacing:0px;writing-mode:lr-tb;direction:ltr;text-anchor:middle;fill:#adb345;fill-opacity:1;stroke:none;stroke-width:5;stroke-linecap:round;stroke-linejoin:round;paint-order:markers fill stroke"
       x="-417.59747"
       y="437.45419"
       id="text7"><tspan
         sodipodi:role="line"
         id="tspan7"
         x="-417.59747"
         y="437.45419" /></text><text
       xml:space="preserve"
       style="font-style:normal;font-variant:normal;font-weight:bold;font-stretch:normal;font-size:33.3333px;line-height:75%;font-family:'Helvetica Now Micro';-inkscape-font-specification:'Helvetica Now Micro Bold';text-align:start;letter-spacing:0px;writing-mode:lr-tb;direction:ltr;text-anchor:start;fill:#adb345;fill-opacity:1;stroke:none;stroke-width:5;stroke-linecap:round;stroke-linejoin:round;paint-order:markers fill stroke"
       x="-374.69025"
       y="65.458473"
       id="text9"><tspan
         sodipodi:role="line"
         id="tspan9"
         x="-374.69025"
         y="65.458473" /></text><text
       xml:space="preserve"
       style="font-style:normal;font-variant:normal;font-weight:bold;font-stretch:normal;font-size:8px;line-height:75%;font-family:'Helvetica Now Micro';-inkscape-font-specification:'Helvetica Now Micro Bold';text-align:start;letter-spacing:0px;writing-mode:lr-tb;direction:ltr;text-anchor:start;white-space:pre;inline-size:41.7965;display:inline;fill:#adb345;fill-opacity:1;stroke:none;stroke-width:5;stroke-linecap:round;stroke-linejoin:round;paint-order:markers fill stroke"
       x="-387.79523"
       y="48.029491"
       id="text12"
       transform="translate(-90.502555,-27.890491)"><tspan
         x="-387.79523"
         y="48.029491"
         id="tspan15"><tspan
           style="line-height:75%;font-family:'Assegai Rounded';-inkscape-font-specification:'Assegai Rounded Bold'"
           id="tspan14">
</tspan></tspan><tspan
         x="-387.79523"
         y="54.623241"
         id="tspan17"><tspan
           style="line-height:75%;font-family:'Assegai Rounded';-inkscape-font-specification:'Assegai Rounded Bold'"
           id="tspan16">achieve </tspan></tspan><tspan
         x="-387.79523"
         y="61.216991"
         id="tspan19"><tspan
           style="line-height:75%;font-family:'Assegai Rounded';-inkscape-font-specification:'Assegai Rounded Bold'"
           id="tspan18">YOvR </tspan></tspan><tspan
         x="-387.79523"
         y="67.810741"
         id="tspan22"><tspan
           style="line-height:75%;font-family:'Assegai Rounded';-inkscape-font-specification:'Assegai Rounded Bold'"
           id="tspan20">DESTINY</tspan><tspan
           style="line-height:75%;font-family:'Assegai Rounded';-inkscape-font-specification:'Assegai Rounded Bold'"
           id="tspan21">.</tspan></tspan></text><text
       xml:space="preserve"
       style="font-style:normal;font-variant:normal;font-weight:bold;font-stretch:normal;font-size:8px;line-height:75%;font-family:'Assegai Rounded';-inkscape-font-specification:'Assegai Rounded Bold';text-align:start;letter-spacing:0px;writing-mode:lr-tb;direction:ltr;text-anchor:start;white-space:pre;inline-size:43.2235;display:inline;fill:#adb345;fill-opacity:1;stroke:none;stroke-width:5;stroke-linecap:round;stroke-linejoin:round;paint-order:markers fill stroke"
       x="-387.39612"
       y="-2.3948224"
       id="text13"
       transform="translate(-90.901311,13.742322)"><tspan
         x="-387.39612"
         y="-2.3948224"
         id="tspan23">become </tspan><tspan
         x="-387.39612"
         y="3.6051779"
         id="tspan24">a pilot.</tspan></text><rect
       style="fill:#487bc6;fill-opacity:1;stroke:none;stroke-width:2.84747;stroke-linecap:round;stroke-linejoin:round;paint-order:markers fill stroke"
       id="rect13"
       width="38.848"
       height="0.68805552"
       x="-387.79523"
       y="2.2194817" /><use
       x="0"
       y="0"
       xlink:href="#rect13"
       id="use13"
       transform="translate(0,38.161297)"
       style="fill:#487bc6;fill-opacity:1" /><path
       style="font-size:6.76456px;line-height:75%;font-family:'Assegai Rounded';-inkscape-font-specification:'Assegai Rounded';letter-spacing:0px;white-space:pre;inline-size:40.8139;fill:#adb345;stroke-width:0.507341;stroke-linecap:round;stroke-linejoin:round;paint-order:markers fill stroke"
       d="m -387.79492,43.245814 v -2.179985 q 0,-0.601148 0.42278,-1.023933 0.42939,-0.429391 1.03054,-0.429391 h 1.45333 q 0.13872,0 0.23121,0.09909 0.0991,0.09248 0.0991,0.231211 0,0.138726 -0.0991,0.237817 -0.0925,0.09248 -0.23121,0.09248 h -1.45333 q -0.3303,0 -0.56151,0.23121 -0.23121,0.231211 -0.23121,0.561512 v 2.179985 q 0,0.138726 -0.0991,0.237816 -0.0925,0.09249 -0.23121,0.09249 -0.13873,0 -0.23782,-0.09249 -0.0925,-0.09909 -0.0925,-0.237816 z m 3.89755,-1.123023 v -1.056962 q 0,-0.601148 0.42278,-1.023933 0.42939,-0.429391 1.03054,-0.429391 h 1.35423 q 0.4294,0 0.72667,0.297271 0.29727,0.297271 0.29727,0.726662 v 0.26424 q 0,0.429391 -0.29727,0.726662 -0.29727,0.297271 -0.72667,0.297271 h -2.14695 v 0.19818 q 0,0.330301 0.23121,0.561512 0.23121,0.23121 0.56151,0.23121 h 2.04787 q 0.13872,0 0.23121,0.09909 0.0991,0.09248 0.0991,0.231211 0,0.138726 -0.0991,0.237816 -0.0925,0.09249 -0.23121,0.09249 h -2.04787 q -0.60115,0 -1.03054,-0.422785 -0.42278,-0.429391 -0.42278,-1.030539 z m 0.6606,-0.858782 h 2.14695 q 0.15194,0 0.25764,-0.105696 0.1057,-0.105696 0.1057,-0.257635 v -0.26424 q 0,-0.151939 -0.1057,-0.257635 -0.1057,-0.105696 -0.25764,-0.105696 h -1.35423 q -0.3303,0 -0.56151,0.23121 -0.23121,0.231211 -0.23121,0.561512 z m 3.83149,0.858782 v -1.056962 q 0,-0.601148 0.42278,-1.023933 0.42939,-0.429391 1.03054,-0.429391 h 2.17999 q 0.13872,0 0.23121,0.09909 0.0991,0.09248 0.0991,0.231211 0,0.138726 -0.0991,0.237817 -0.0925,0.09248 -0.23121,0.09248 h -2.17999 q -0.3303,0 -0.56151,0.23121 -0.23121,0.231211 -0.23121,0.561512 v 1.056962 q 0,0.330301 0.23121,0.561512 0.23121,0.23121 0.56151,0.23121 h 2.17999 q 0.13872,0 0.23121,0.09909 0.0991,0.09248 0.0991,0.231211 0,0.138726 -0.0991,0.237816 -0.0925,0.09249 -0.23121,0.09249 h -2.17999 q -0.60115,0 -1.03054,-0.422785 -0.42278,-0.429391 -0.42278,-1.030539 z m 4.62421,1.123023 v -2.179985 q 0,-0.601148 0.42278,-1.023933 0.4294,-0.429391 1.03054,-0.429391 h 1.45333 q 0.13872,0 0.23121,0.09909 0.0991,0.09248 0.0991,0.231211 0,0.138726 -0.0991,0.237817 -0.0925,0.09248 -0.23121,0.09248 h -1.45333 q -0.3303,0 -0.56151,0.23121 -0.23121,0.231211 -0.23121,0.561512 v 2.179985 q 0,0.138726 -0.0991,0.237816 -0.0925,0.09249 -0.23121,0.09249 -0.13873,0 -0.23782,-0.09249 -0.0925,-0.09909 -0.0925,-0.237816 z m 3.89755,-1.123023 v -2.179985 q 0,-0.138726 0.0925,-0.231211 0.0991,-0.09909 0.23782,-0.09909 0.13873,0 0.23121,0.09909 0.0991,0.09248 0.0991,0.231211 v 2.179985 q 0,0.330301 0.23121,0.561512 0.23121,0.23121 0.56151,0.23121 h 1.05696 q 0.3303,0 0.56152,-0.23121 0.23121,-0.231211 0.23121,-0.561512 v -2.179985 q 0,-0.138726 0.0925,-0.231211 0.0991,-0.09909 0.23782,-0.09909 0.13872,0 0.23121,0.09909 0.0991,0.09248 0.0991,0.231211 v 2.179985 q 0,0.601148 -0.42939,1.030539 -0.42279,0.422785 -1.02394,0.422785 h -1.05696 q -0.60115,0 -1.03054,-0.422785 -0.42278,-0.429391 -0.42278,-1.030539 z m 4.62421,1.123023 v -3.303008 q 0,-0.138726 0.0925,-0.231211 0.0991,-0.09909 0.23782,-0.09909 0.13873,0 0.23121,0.09909 0.0991,0.09248 0.0991,0.231211 v 3.303008 q 0,0.138726 -0.0991,0.237816 -0.0925,0.09249 -0.23121,0.09249 -0.13873,0 -0.23782,-0.09249 -0.0925,-0.09909 -0.0925,-0.237816 z m 1.3212,-1.123023 v -2.179985 q 0,-0.138726 0.0925,-0.231211 0.0991,-0.09909 0.23781,-0.09909 0.13873,0 0.23121,0.09909 0.0991,0.09248 0.0991,0.231211 v 1.321203 h 2.57634 q 0.13873,0 0.23121,0.09909 0.0991,0.09249 0.0991,0.231211 0,0.138726 -0.0991,0.237816 -0.0925,0.09248 -0.23121,0.09248 h -2.57634 v 0.19818 q 0,0.330301 0.23121,0.561512 0.23121,0.23121 0.56151,0.23121 h 1.78362 q 0.13873,0 0.23121,0.09909 0.0991,0.09248 0.0991,0.231211 0,0.138726 -0.0991,0.237816 -0.0925,0.09249 -0.23121,0.09249 h -1.78362 q -0.60115,0 -1.03054,-0.422785 -0.42279,-0.429391 -0.42279,-1.030539 z m 4.22785,1.123023 v -3.303008 q 0,-0.138726 0.0925,-0.231211 0.0991,-0.09909 0.23781,-0.09909 0.13873,0 0.23121,0.09909 0.0991,0.09248 0.0991,0.231211 v 3.303008 q 0,0.138726 -0.0991,0.237816 -0.0925,0.09249 -0.23121,0.09249 -0.13872,0 -0.23781,-0.09249 -0.0925,-0.09909 -0.0925,-0.237816 z m 1.32121,0 v -2.179985 q 0,-0.601148 0.42278,-1.023933 0.42939,-0.429391 1.03054,-0.429391 h 1.05696 q 0.60115,0 1.02394,0.429391 0.42939,0.422785 0.42939,1.023933 v 2.179985 q 0,0.138726 -0.0991,0.237816 -0.0925,0.09249 -0.23121,0.09249 -0.13873,0 -0.23782,-0.09249 -0.0925,-0.09909 -0.0925,-0.237816 v -2.179985 q 0,-0.330301 -0.23121,-0.561512 -0.23121,-0.23121 -0.56151,-0.23121 h -1.05696 q -0.3303,0 -0.56151,0.23121 -0.23121,0.231211 -0.23121,0.561512 v 2.179985 q 0,0.138726 -0.0991,0.237816 -0.0925,0.09249 -0.23121,0.09249 -0.13873,0 -0.23782,-0.09249 -0.0925,-0.09909 -0.0925,-0.237816 z m 4.62421,-1.123023 v -1.056962 q 0,-0.601148 0.42278,-1.023933 0.42939,-0.429391 1.03054,-0.429391 h 2.04787 q 0.13872,0 0.23121,0.09909 0.0991,0.09248 0.0991,0.231211 0,0.138726 -0.0991,0.237817 -0.0925,0.09248 -0.23121,0.09248 h -2.04787 q -0.3303,0 -0.56151,0.23121 -0.23121,0.231211 -0.23121,0.561512 v 1.056962 q 0,0.330301 0.23121,0.561512 0.23121,0.23121 0.56151,0.23121 h 1.35423 q 0.15194,0 0.25764,-0.105696 0.10569,-0.105696 0.10569,-0.257635 v -0.26424 q 0,-0.151939 -0.10569,-0.257635 -0.1057,-0.105696 -0.25764,-0.105696 h -1.05696 q -0.13873,0 -0.23782,-0.09248 -0.0925,-0.09909 -0.0925,-0.237816 0,-0.138726 0.0925,-0.231211 0.0991,-0.09909 0.23782,-0.09909 h 1.05696 q 0.42939,0 0.72667,0.297271 0.29727,0.297271 0.29727,0.726662 v 0.26424 q 0,0.429391 -0.29727,0.726662 -0.29728,0.297271 -0.72667,0.297271 h -1.35423 q -0.60115,0 -1.03054,-0.422785 -0.42278,-0.429391 -0.42278,-1.030539 z m 4.97914,1.088037 q 0,-0.250288 0.12176,-0.351757 0.12176,-0.101468 0.29088,-0.101468 0.17587,0 0.29764,0.101468 0.12852,0.101469 0.12852,0.351757 0,0.243525 -0.12852,0.351758 -0.12177,0.108232 -0.29764,0.108232 -0.16912,0 -0.29088,-0.108232 -0.12176,-0.108233 -0.12176,-0.351758 z m -38.00922,5.216006 v -2.179985 q 0,-0.601148 0.42278,-1.023933 0.42939,-0.429391 1.03054,-0.429391 h 1.05696 q 0.60115,0 1.02394,0.429391 0.42939,0.422785 0.42939,1.023933 v 2.179985 q 0,0.138726 -0.0991,0.237817 -0.0925,0.09248 -0.23121,0.09248 -0.13873,0 -0.23782,-0.09248 -0.0925,-0.09909 -0.0925,-0.237817 v -2.179985 q 0,-0.330301 -0.23121,-0.561511 -0.23122,-0.231211 -0.56152,-0.231211 h -1.05696 q -0.3303,0 -0.56151,0.231211 -0.23121,0.23121 -0.23121,0.561511 v 2.179985 q 0,0.138726 -0.0991,0.237817 -0.0925,0.09248 -0.23121,0.09248 -0.13873,0 -0.23782,-0.09248 -0.0925,-0.09909 -0.0925,-0.237817 z m 5.28481,-1.123023 q 0,0.330301 0.23121,0.561512 0.23121,0.23121 0.56151,0.23121 h 1.05697 q 0.3303,0 0.56151,-0.23121 0.23121,-0.231211 0.23121,-0.561512 v -1.056962 q 0,-0.330301 -0.23121,-0.561511 -0.23121,-0.231211 -0.56151,-0.231211 h -1.05697 q -0.3303,0 -0.56151,0.231211 -0.23121,0.23121 -0.23121,0.561511 z m -0.6606,0 v -1.056962 q 0,-0.601148 0.42278,-1.023933 0.4294,-0.429391 1.03054,-0.429391 h 1.05697 q 0.60114,0 1.02393,0.429391 0.42939,0.422785 0.42939,1.023933 v 1.056962 q 0,0.601148 -0.42939,1.030539 -0.42279,0.422785 -1.02393,0.422785 h -1.05697 q -0.60114,0 -1.03054,-0.422785 -0.42278,-0.429391 -0.42278,-1.030539 z m 4.62421,0.429391 v -2.609376 q 0,-0.138726 0.0925,-0.23121 0.0991,-0.09909 0.23782,-0.09909 0.13873,0 0.23121,0.09909 0.0991,0.09248 0.0991,0.23121 v 2.609376 q 0,0.151939 0.1057,0.257635 0.10569,0.105696 0.25763,0.105696 h 0.16515 q 0.14534,0 0.25103,-0.105696 0.1123,-0.105696 0.1123,-0.257635 v -2.609376 q 0,-0.138726 0.0925,-0.23121 0.0991,-0.09909 0.23782,-0.09909 0.13872,0 0.23121,0.09909 0.0991,0.09248 0.0991,0.23121 v 2.609376 q 0,0.151939 0.10569,0.257635 0.1123,0.105696 0.25764,0.105696 h 0.16515 q 0.15194,0 0.25763,-0.105696 0.1057,-0.105696 0.1057,-0.257635 v -2.609376 q 0,-0.138726 0.0925,-0.23121 0.0991,-0.09909 0.23782,-0.09909 0.13873,0 0.23121,0.09909 0.0991,0.09248 0.0991,0.23121 v 2.609376 q 0,0.429391 -0.29727,0.726662 -0.29727,0.297271 -0.72666,0.297271 h -0.16515 q -0.40297,0 -0.69363,-0.270847 -0.29067,0.270847 -0.69364,0.270847 h -0.16515 q -0.42939,0 -0.72666,-0.297271 -0.29727,-0.297271 -0.29727,-0.726662 z m 4.91308,0.658647 q 0,-0.250289 0.12176,-0.351757 0.12176,-0.101469 0.29088,-0.101469 0.17588,0 0.29764,0.101469 0.12853,0.101468 0.12853,0.351757 0,0.243524 -0.12853,0.351757 -0.12176,0.108233 -0.29764,0.108233 -0.16912,0 -0.29088,-0.108233 -0.12176,-0.108233 -0.12176,-0.351757 z"
       id="use18"
       transform="translate(0,25.473249)"
       aria-label="RECRvITING.&#10;NOW.&#10;" /><path
       style="font-weight:bold;font-size:8px;line-height:75%;font-family:'Assegai Rounded';-inkscape-font-specification:'Assegai Rounded Bold';letter-spacing:0px;white-space:pre;inline-size:41.7965;fill:#adb345;stroke-width:5;stroke-linecap:round;stroke-linejoin:round;paint-order:markers fill stroke"
       d="m -387.01367,23.407115 h 3.125 v -2.1875 q 0,-0.390625 -0.27344,-0.664062 -0.27344,-0.273438 -0.66406,-0.273438 h -1.25 q -0.39063,0 -0.66406,0.273438 -0.27344,0.273437 -0.27344,0.664062 z m -0.78125,0.390625 v -2.578125 q 0,-0.710937 0.5,-1.210937 0.50781,-0.507813 1.21875,-0.507813 h 1.25 q 0.71094,0 1.21094,0.507813 0.50781,0.5 0.50781,1.210937 v 2.578125 q 0,0.164063 -0.11719,0.28125 -0.10937,0.109375 -0.27344,0.109375 h -3.90625 q -0.16406,0 -0.28125,-0.109375 -0.10937,-0.117187 -0.10937,-0.28125 z m 5.46875,-1.328125 v -1.25 q 0,-0.710937 0.5,-1.210937 0.50781,-0.507813 1.21875,-0.507813 h 2.57812 q 0.16407,0 0.27344,0.117188 0.11719,0.109375 0.11719,0.273437 0,0.164063 -0.11719,0.28125 -0.10937,0.109375 -0.27344,0.109375 h -2.57812 q -0.39063,0 -0.66406,0.273438 -0.27344,0.273437 -0.27344,0.664062 v 1.25 q 0,0.390625 0.27344,0.664063 0.27343,0.273437 0.66406,0.273437 h 2.57812 q 0.16407,0 0.27344,0.117188 0.11719,0.109375 0.11719,0.273437 0,0.164063 -0.11719,0.28125 -0.10937,0.109375 -0.27344,0.109375 h -2.57812 q -0.71094,0 -1.21875,-0.5 -0.5,-0.507812 -0.5,-1.21875 z m 5.46875,1.328125 v -3.90625 q 0,-0.164062 0.10937,-0.273437 0.11719,-0.117188 0.28125,-0.117188 0.16407,0 0.27344,0.117188 0.11719,0.109375 0.11719,0.273437 v 1.40625 h 1.5625 q 0.71094,0 1.21094,0.507813 0.50781,0.5 0.50781,1.210937 v 0.78125 q 0,0.164063 -0.11719,0.28125 -0.10937,0.109375 -0.27344,0.109375 -0.16406,0 -0.28125,-0.109375 -0.10937,-0.117187 -0.10937,-0.28125 v -0.78125 q 0,-0.390625 -0.27344,-0.664062 -0.27344,-0.273438 -0.66406,-0.273438 h -1.5625 v 1.71875 q 0,0.164063 -0.11719,0.28125 -0.10937,0.109375 -0.27344,0.109375 -0.16406,0 -0.28125,-0.109375 -0.10937,-0.117187 -0.10937,-0.28125 z m 4.84375,0 v -3.90625 q 0,-0.164062 0.10937,-0.273437 0.11719,-0.117188 0.28125,-0.117188 0.16407,0 0.27344,0.117188 0.11719,0.109375 0.11719,0.273437 v 3.90625 q 0,0.164063 -0.11719,0.28125 -0.10937,0.109375 -0.27344,0.109375 -0.16406,0 -0.28125,-0.109375 -0.10937,-0.117187 -0.10937,-0.28125 z m 1.5625,-1.328125 v -1.25 q 0,-0.710937 0.5,-1.210937 0.50781,-0.507813 1.21875,-0.507813 h 1.60156 q 0.50781,0 0.85938,0.351563 0.35156,0.351562 0.35156,0.859375 v 0.3125 q 0,0.507812 -0.35156,0.859375 -0.35157,0.351562 -0.85938,0.351562 h -2.53906 v 0.234375 q 0,0.390625 0.27344,0.664063 0.27343,0.273437 0.66406,0.273437 h 2.42187 q 0.16407,0 0.27344,0.117188 0.11719,0.109375 0.11719,0.273437 0,0.164063 -0.11719,0.28125 -0.10937,0.109375 -0.27344,0.109375 h -2.42187 q -0.71094,0 -1.21875,-0.5 -0.5,-0.507812 -0.5,-1.21875 z m 0.78125,-1.015625 h 2.53906 q 0.17969,0 0.30469,-0.125 0.125,-0.125 0.125,-0.304687 v -0.3125 q 0,-0.179688 -0.125,-0.304688 -0.125,-0.125 -0.30469,-0.125 h -1.60156 q -0.39063,0 -0.66406,0.273438 -0.27344,0.273437 -0.27344,0.664062 z m 4.53125,1.015625 V 19.89149 q 0,-0.164062 0.10937,-0.273437 0.11719,-0.117188 0.28125,-0.117188 0.16407,0 0.27344,0.117188 0.11719,0.109375 0.11719,0.273437 v 2.578125 q 0,0.390625 0.27344,0.664063 0.27343,0.273437 0.66406,0.273437 h 1.25 q 0.39062,0 0.66406,-0.273437 0.27344,-0.273438 0.27344,-0.664063 V 19.89149 q 0,-0.164062 0.10937,-0.273437 0.11719,-0.117188 0.28125,-0.117188 0.16407,0 0.27344,0.117188 0.11719,0.109375 0.11719,0.273437 v 2.578125 q 0,0.710938 -0.50781,1.21875 -0.5,0.5 -1.21094,0.5 h -1.25 q -0.71094,0 -1.21875,-0.5 -0.5,-0.507812 -0.5,-1.21875 z m 5.46875,0 v -1.25 q 0,-0.710937 0.5,-1.210937 0.50781,-0.507813 1.21875,-0.507813 h 1.60156 q 0.50781,0 0.85938,0.351563 0.35156,0.351562 0.35156,0.859375 v 0.3125 q 0,0.507812 -0.35156,0.859375 -0.35157,0.351562 -0.85938,0.351562 h -2.53906 v 0.234375 q 0,0.390625 0.27344,0.664063 0.27343,0.273437 0.66406,0.273437 h 2.42187 q 0.16407,0 0.27344,0.117188 0.11719,0.109375 0.11719,0.273437 0,0.164063 -0.11719,0.28125 -0.10937,0.109375 -0.27344,0.109375 h -2.42187 q -0.71094,0 -1.21875,-0.5 -0.5,-0.507812 -0.5,-1.21875 z m 0.78125,-1.015625 h 2.53906 q 0.17969,0 0.30469,-0.125 0.125,-0.125 0.125,-0.304687 v -0.3125 q 0,-0.179688 -0.125,-0.304688 -0.125,-0.125 -0.30469,-0.125 h -1.60156 q -0.39063,0 -0.66406,0.273438 -0.27344,0.273437 -0.27344,0.664062 z m -28.90625,6.007813 V 26.48524 q 0,-0.164062 0.10937,-0.273437 0.11719,-0.117188 0.28125,-0.117188 0.16407,0 0.27344,0.117188 0.11719,0.109375 0.11719,0.273437 v 0.976563 q 0,0.382812 0.27344,0.664062 0.27343,0.273438 0.66406,0.273438 h 1.25 q 0.39062,0 0.66406,-0.273438 0.27344,-0.28125 0.27344,-0.664062 V 26.48524 q 0,-0.164062 0.10937,-0.273437 0.11719,-0.117188 0.28125,-0.117188 0.16407,0 0.27344,0.117188 0.11719,0.109375 0.11719,0.273437 v 0.976563 q 0,0.710937 -0.50781,1.21875 -0.5,0.5 -1.21094,0.5 h -0.23438 v 1.210937 q 0,0.164063 -0.11718,0.28125 -0.10938,0.109375 -0.27344,0.109375 -0.16406,0 -0.28125,-0.109375 -0.10938,-0.117187 -0.10938,-0.28125 v -1.210937 h -0.23437 q -0.71094,0 -1.21875,-0.5 -0.5,-0.507813 -0.5,-1.21875 z m 6.25,1.601562 q 0,0.390625 0.27344,0.664063 0.27343,0.273437 0.66406,0.273437 h 1.25 q 0.39062,0 0.66406,-0.273437 0.27344,-0.273438 0.27344,-0.664063 v -1.25 q 0,-0.390625 -0.27344,-0.664062 -0.27344,-0.273438 -0.66406,-0.273438 h -1.25 q -0.39063,0 -0.66406,0.273438 -0.27344,0.273437 -0.27344,0.664062 z m -0.78125,0 v -1.25 q 0,-0.710937 0.5,-1.210937 0.50781,-0.507813 1.21875,-0.507813 h 1.25 q 0.71094,0 1.21094,0.507813 0.50781,0.5 0.50781,1.210937 v 1.25 q 0,0.710938 -0.50781,1.21875 -0.5,0.5 -1.21094,0.5 h -1.25 q -0.71094,0 -1.21875,-0.5 -0.5,-0.507812 -0.5,-1.21875 z m 5.46875,0 V 26.48524 q 0,-0.164062 0.10937,-0.273437 0.11719,-0.117188 0.28125,-0.117188 0.16407,0 0.27344,0.117188 0.11719,0.109375 0.11719,0.273437 v 2.578125 q 0,0.390625 0.27344,0.664063 0.27343,0.273437 0.66406,0.273437 h 1.25 q 0.39062,0 0.66406,-0.273437 0.27344,-0.273438 0.27344,-0.664063 V 26.48524 q 0,-0.164062 0.10937,-0.273437 0.11719,-0.117188 0.28125,-0.117188 0.16407,0 0.27344,0.117188 0.11719,0.109375 0.11719,0.273437 v 2.578125 q 0,0.710938 -0.50781,1.21875 -0.5,0.5 -1.21094,0.5 h -1.25 q -0.71094,0 -1.21875,-0.5 -0.5,-0.507812 -0.5,-1.21875 z m 5.46875,1.328125 v -2.578125 q 0,-0.710937 0.5,-1.210937 0.50781,-0.507813 1.21875,-0.507813 h 1.71875 q 0.16406,0 0.27344,0.117188 0.11718,0.109375 0.11718,0.273437 0,0.164063 -0.11718,0.28125 -0.10938,0.109375 -0.27344,0.109375 h -1.71875 q -0.39063,0 -0.66406,0.273438 -0.27344,0.273437 -0.27344,0.664062 v 2.578125 q 0,0.164063 -0.11719,0.28125 -0.10937,0.109375 -0.27344,0.109375 -0.16406,0 -0.28125,-0.109375 -0.10937,-0.117187 -0.10937,-0.28125 z m -15.625,6.203125 h 2.1875 q 0.39062,0 0.66406,-0.273437 0.27344,-0.273438 0.27344,-0.664063 v -1.25 q 0,-0.390625 -0.27344,-0.664062 -0.27344,-0.273438 -0.66406,-0.273438 h -2.1875 z m -0.78125,0.390625 v -3.90625 q 0,-0.164062 0.10937,-0.273437 0.11719,-0.117188 0.28125,-0.117188 h 2.57813 q 0.71094,0 1.21094,0.507813 0.50781,0.5 0.50781,1.210937 v 1.25 q 0,0.710938 -0.50781,1.21875 -0.5,0.5 -1.21094,0.5 h -2.57813 q -0.16406,0 -0.28125,-0.109375 -0.10937,-0.117187 -0.10937,-0.28125 z m 5.46875,-1.328125 v -1.25 q 0,-0.710937 0.5,-1.210937 0.50781,-0.507813 1.21875,-0.507813 h 1.60156 q 0.50781,0 0.85938,0.351563 0.35156,0.351562 0.35156,0.859375 v 0.3125 q 0,0.507812 -0.35156,0.859375 -0.35157,0.351562 -0.85938,0.351562 h -2.53906 v 0.234375 q 0,0.390625 0.27344,0.664063 0.27343,0.273437 0.66406,0.273437 h 2.42187 q 0.16407,0 0.27344,0.117188 0.11719,0.109375 0.11719,0.273437 0,0.164063 -0.11719,0.28125 -0.10937,0.109375 -0.27344,0.109375 h -2.42187 q -0.71094,0 -1.21875,-0.5 -0.5,-0.507812 -0.5,-1.21875 z m 0.78125,-1.015625 h 2.53906 q 0.17969,0 0.30469,-0.125 0.125,-0.125 0.125,-0.304687 v -0.3125 q 0,-0.179688 -0.125,-0.304688 -0.125,-0.125 -0.30469,-0.125 h -1.60156 q -0.39063,0 -0.66406,0.273438 -0.27344,0.273437 -0.27344,0.664062 z m 4.71875,2.625 q -0.10938,-0.117187 -0.10938,-0.28125 0,-0.164062 0.10938,-0.273437 0.11719,-0.117188 0.28125,-0.117188 h 2.77344 q 0.17968,0 0.30468,-0.125 0.125,-0.125 0.125,-0.304687 v -0.3125 q 0,-0.179688 -0.125,-0.304688 -0.125,-0.125 -0.30468,-0.125 h -2.03125 q -0.50782,0 -0.85938,-0.351562 -0.35156,-0.351563 -0.35156,-0.859375 v -0.3125 q 0,-0.507813 0.35156,-0.859375 0.35156,-0.351563 0.85938,-0.351563 h 2.77343 q 0.16407,0 0.27344,0.117188 0.11719,0.109375 0.11719,0.273437 0,0.164063 -0.11719,0.28125 -0.10937,0.109375 -0.27344,0.109375 h -2.77343 q -0.17969,0 -0.30469,0.125 -0.125,0.125 -0.125,0.304688 v 0.3125 q 0,0.179687 0.125,0.304687 0.125,0.125 0.30469,0.125 h 2.03125 q 0.50781,0 0.85937,0.351563 0.35156,0.351562 0.35156,0.859375 v 0.3125 q 0,0.507812 -0.35156,0.859375 -0.35156,0.351562 -0.85937,0.351562 h -2.77344 q -0.16406,0 -0.28125,-0.109375 z m 5.04687,-1.609375 V 33.07899 q 0,-0.164062 0.10938,-0.273437 0.11719,-0.117188 0.28125,-0.117188 0.16406,0 0.27344,0.117188 0.11718,0.109375 0.11718,0.273437 v 1.5625 h 3.04688 q 0.16406,0 0.27344,0.117188 0.11718,0.109375 0.11718,0.273437 0,0.164063 -0.11718,0.28125 -0.10938,0.109375 -0.27344,0.109375 h -3.04688 v 0.234375 q 0,0.390625 0.27344,0.664063 0.27344,0.273437 0.66406,0.273437 h 2.10938 q 0.16406,0 0.27344,0.117188 0.11718,0.109375 0.11718,0.273437 0,0.164063 -0.11718,0.28125 -0.10938,0.109375 -0.27344,0.109375 h -2.10938 q -0.71093,0 -1.21875,-0.5 -0.5,-0.507812 -0.5,-1.21875 z m 5,1.328125 v -3.90625 q 0,-0.164062 0.10938,-0.273437 0.11719,-0.117188 0.28125,-0.117188 0.16406,0 0.27344,0.117188 0.11718,0.109375 0.11718,0.273437 v 3.90625 q 0,0.164063 -0.11718,0.28125 -0.10938,0.109375 -0.27344,0.109375 -0.16406,0 -0.28125,-0.109375 -0.10938,-0.117187 -0.10938,-0.28125 z m 1.5625,0 v -2.578125 q 0,-0.710937 0.5,-1.210937 0.50782,-0.507813 1.21875,-0.507813 h 1.25 q 0.71094,0 1.21094,0.507813 0.50781,0.5 0.50781,1.210937 v 2.578125 q 0,0.164063 -0.11718,0.28125 -0.10938,0.109375 -0.27344,0.109375 -0.16406,0 -0.28125,-0.109375 -0.10938,-0.117187 -0.10938,-0.28125 v -2.578125 q 0,-0.390625 -0.27343,-0.664062 -0.27344,-0.273438 -0.66407,-0.273438 h -1.25 q -0.39062,0 -0.66406,0.273438 -0.27344,0.273437 -0.27344,0.664062 v 2.578125 q 0,0.164063 -0.11718,0.28125 -0.10938,0.109375 -0.27344,0.109375 -0.16406,0 -0.28125,-0.109375 -0.10938,-0.117187 -0.10938,-0.28125 z m 5.46875,-2.929687 V 33.07899 q 0,-0.164062 0.10938,-0.273437 0.11719,-0.117188 0.28125,-0.117188 0.16406,0 0.27344,0.117188 0.11718,0.109375 0.11718,0.273437 v 0.976563 q 0,0.382812 0.27344,0.664062 0.27344,0.273438 0.66406,0.273438 h 1.25 q 0.39063,0 0.66407,-0.273438 0.27343,-0.28125 0.27343,-0.664062 V 33.07899 q 0,-0.164062 0.10938,-0.273437 0.11719,-0.117188 0.28125,-0.117188 0.16406,0 0.27344,0.117188 0.11718,0.109375 0.11718,0.273437 v 0.976563 q 0,0.710937 -0.50781,1.21875 -0.5,0.5 -1.21094,0.5 h -0.23437 v 1.210937 q 0,0.164063 -0.11719,0.28125 -0.10937,0.109375 -0.27344,0.109375 -0.16406,0 -0.28125,-0.109375 -0.10937,-0.117187 -0.10937,-0.28125 v -1.210937 h -0.23438 q -0.71093,0 -1.21875,-0.5 -0.5,-0.507813 -0.5,-1.21875 z m 5.90075,2.760312 q 0,-0.368 0.2,-0.52 0.208,-0.152 0.496,-0.152 0.28,0 0.48,0.152 0.208,0.152 0.208,0.52 0,0.352 -0.208,0.512 -0.2,0.152 -0.48,0.152 -0.288,0 -0.496,-0.152 -0.2,-0.16 -0.2,-0.512 z"
       id="use19"
       aria-label="&#10;achieve YOvR DESTINY." /><path
       d="M -387.79524,10.105326 V 7.5272011 q 0,-0.7109375 0.5,-1.2109375 0.50781,-0.5078125 1.21875,-0.5078125 h 1.52343 q 0.50782,0 0.85938,0.3515625 0.35156,0.3515625 0.35156,0.859375 v 0.3125 q 0,0.4765625 -0.32031,0.8203125 0.32031,0.34375 0.32031,0.8203125 v 0.3125 q 0,0.5078125 -0.35156,0.8593754 -0.35156,0.351562 -0.85938,0.351562 h -2.85156 q -0.16406,0 -0.28125,-0.109375 -0.10937,-0.117187 -0.10937,-0.28125 z m 0.78125,-2.3437499 h 2.46093 q 0.17969,0 0.30469,-0.125 0.125,-0.125 0.125,-0.3046875 v -0.3125 q 0,-0.1796875 -0.125,-0.3046875 -0.125,-0.125 -0.30469,-0.125 h -1.52343 q -0.39063,0 -0.66407,0.2734375 -0.27343,0.2734375 -0.27343,0.6640625 z m 0,1.953125 h 2.46093 q 0.17969,0 0.30469,-0.125 0.125,-0.125 0.125,-0.3046875 v -0.3125 q 0,-0.1796875 -0.125,-0.3046875 -0.125,-0.125 -0.30469,-0.125 h -2.46093 z m 4.45312,-0.9375 v -1.25 q 0,-0.7109375 0.5,-1.2109375 0.50781,-0.5078125 1.21875,-0.5078125 h 1.60156 q 0.50782,0 0.85938,0.3515625 0.35156,0.3515625 0.35156,0.859375 v 0.3125 q 0,0.5078125 -0.35156,0.859375 -0.35156,0.3515625 -0.85938,0.3515625 h -2.53906 v 0.234375 q 0,0.390625 0.27344,0.6640625 0.27344,0.2734375 0.66406,0.2734375 h 2.42188 q 0.16406,0 0.27343,0.1171875 0.11719,0.109375 0.11719,0.2734374 0,0.164063 -0.11719,0.28125 -0.10937,0.109375 -0.27343,0.109375 h -2.42188 q -0.71094,0 -1.21875,-0.4999999 -0.5,-0.5078125 -0.5,-1.21875 z m 0.78125,-1.015625 h 2.53906 q 0.17969,0 0.30469,-0.125 0.125,-0.125 0.125,-0.3046875 v -0.3125 q 0,-0.1796875 -0.125,-0.3046875 -0.125,-0.125 -0.30469,-0.125 h -1.60156 q -0.39062,0 -0.66406,0.2734375 -0.27344,0.2734375 -0.27344,0.6640625 z m 4.53125,1.015625 v -1.25 q 0,-0.7109375 0.5,-1.2109375 0.50781,-0.5078125 1.21875,-0.5078125 h 2.57813 q 0.16406,0 0.27343,0.1171875 0.11719,0.109375 0.11719,0.2734375 0,0.1640625 -0.11719,0.28125 -0.10937,0.109375 -0.27343,0.109375 h -2.57813 q -0.39062,0 -0.66406,0.2734375 -0.27344,0.2734375 -0.27344,0.6640625 v 1.25 q 0,0.390625 0.27344,0.6640625 0.27344,0.2734375 0.66406,0.2734375 h 2.57813 q 0.16406,0 0.27343,0.1171875 0.11719,0.109375 0.11719,0.2734374 0,0.164063 -0.11719,0.28125 -0.10937,0.109375 -0.27343,0.109375 h -2.57813 q -0.71094,0 -1.21875,-0.4999999 -0.5,-0.5078125 -0.5,-1.21875 z m 6.25,0 q 0,0.390625 0.27344,0.6640625 0.27344,0.2734375 0.66406,0.2734375 h 1.25 q 0.39063,0 0.66406,-0.2734375 0.27344,-0.2734375 0.27344,-0.6640625 v -1.25 q 0,-0.390625 -0.27344,-0.6640625 -0.27343,-0.2734375 -0.66406,-0.2734375 h -1.25 q -0.39062,0 -0.66406,0.2734375 -0.27344,0.2734375 -0.27344,0.6640625 z m -0.78125,0 v -1.25 q 0,-0.7109375 0.5,-1.2109375 0.50781,-0.5078125 1.21875,-0.5078125 h 1.25 q 0.71094,0 1.21094,0.5078125 0.50781,0.5 0.50781,1.2109375 v 1.25 q 0,0.7109375 -0.50781,1.21875 -0.5,0.4999999 -1.21094,0.4999999 h -1.25 q -0.71094,0 -1.21875,-0.4999999 -0.5,-0.5078125 -0.5,-1.21875 z m 5.46875,1.3281249 V 7.0193886 q 0,-0.5078125 0.35156,-0.859375 0.35157,-0.3515625 0.85938,-0.3515625 h 0.19531 q 0.47656,0 0.82031,0.3203125 0.34375,-0.3203125 0.82032,-0.3203125 h 0.19531 q 0.50781,0 0.85937,0.3515625 0.35157,0.3515625 0.35157,0.859375 v 3.0859374 q 0,0.164063 -0.11719,0.28125 -0.10938,0.109375 -0.27344,0.109375 -0.16406,0 -0.28125,-0.109375 -0.10937,-0.117187 -0.10937,-0.28125 V 7.0193886 q 0,-0.1796875 -0.125,-0.3046875 -0.125,-0.125 -0.30469,-0.125 h -0.19531 q -0.17188,0 -0.30469,0.125 -0.125,0.125 -0.125,0.3046875 v 3.0859374 q 0,0.164063 -0.11719,0.28125 -0.10937,0.109375 -0.27344,0.109375 -0.16406,0 -0.28125,-0.109375 -0.10937,-0.117187 -0.10937,-0.28125 V 7.0193886 q 0,-0.1796875 -0.13281,-0.3046875 -0.125,-0.125 -0.29688,-0.125 h -0.19531 q -0.17969,0 -0.30469,0.125 -0.125,0.125 -0.125,0.3046875 v 3.0859374 q 0,0.164063 -0.11719,0.28125 -0.10937,0.109375 -0.27343,0.109375 -0.16407,0 -0.28125,-0.109375 -0.10938,-0.117187 -0.10938,-0.28125 z m 5.23438,-1.3281249 v -1.25 q 0,-0.7109375 0.5,-1.2109375 0.50781,-0.5078125 1.21875,-0.5078125 h 1.60156 q 0.50781,0 0.85937,0.3515625 0.35157,0.3515625 0.35157,0.859375 v 0.3125 q 0,0.5078125 -0.35157,0.859375 -0.35156,0.3515625 -0.85937,0.3515625 h -2.53906 v 0.234375 q 0,0.390625 0.27343,0.6640625 0.27344,0.2734375 0.66407,0.2734375 h 2.42187 q 0.16406,0 0.27344,0.1171875 0.11719,0.109375 0.11719,0.2734374 0,0.164063 -0.11719,0.28125 -0.10938,0.109375 -0.27344,0.109375 h -2.42187 q -0.71094,0 -1.21875,-0.4999999 -0.5,-0.5078125 -0.5,-1.21875 z m 0.78125,-1.015625 h 2.53906 q 0.17969,0 0.30469,-0.125 0.125,-0.125 0.125,-0.3046875 v -0.3125 q 0,-0.1796875 -0.125,-0.3046875 -0.125,-0.125 -0.30469,-0.125 h -1.60156 q -0.39063,0 -0.66407,0.2734375 -0.27343,0.2734375 -0.27343,0.6640625 z m -26.71875,7.9531249 h 3.125 v -2.1875 q 0,-0.390625 -0.27344,-0.664062 -0.27344,-0.273438 -0.66406,-0.273438 h -1.25 q -0.39063,0 -0.66407,0.273438 -0.27343,0.273437 -0.27343,0.664062 z m -0.78125,0.390625 v -2.578125 q 0,-0.710937 0.5,-1.210937 0.50781,-0.507813 1.21875,-0.507813 h 1.25 q 0.71093,0 1.21093,0.507813 0.50782,0.5 0.50782,1.210937 v 2.578125 q 0,0.164063 -0.11719,0.28125 -0.10938,0.109375 -0.27344,0.109375 h -3.90625 q -0.16406,0 -0.28125,-0.109375 -0.10937,-0.117187 -0.10937,-0.28125 z m 11.48437,0 v -2.578125 q 0,-0.710937 0.5,-1.210937 0.50781,-0.507813 1.21875,-0.507813 h 1.60156 q 0.50782,0 0.85938,0.351563 0.35156,0.351562 0.35156,0.859375 v 0.3125 q 0,0.507812 -0.35156,0.859375 -0.35156,0.351562 -0.85938,0.351562 h -2.53906 v 1.5625 q 0,0.164063 -0.11719,0.28125 -0.10937,0.109375 -0.27343,0.109375 -0.16407,0 -0.28125,-0.109375 -0.10938,-0.117187 -0.10938,-0.28125 z m 0.78125,-2.34375 h 2.53906 q 0.17969,0 0.30469,-0.125 0.125,-0.125 0.125,-0.304687 v -0.3125 q 0,-0.179688 -0.125,-0.304688 -0.125,-0.125 -0.30469,-0.125 h -1.60156 q -0.39062,0 -0.66406,0.273438 -0.27344,0.273437 -0.27344,0.664062 z m 4.53125,2.34375 v -3.90625 q 0,-0.164062 0.10938,-0.273437 0.11718,-0.117188 0.28125,-0.117188 0.16406,0 0.27343,0.117188 0.11719,0.109375 0.11719,0.273437 v 3.90625 q 0,0.164063 -0.11719,0.28125 -0.10937,0.109375 -0.27343,0.109375 -0.16407,0 -0.28125,-0.109375 -0.10938,-0.117187 -0.10938,-0.28125 z m 1.5625,-1.328125 v -2.578125 q 0,-0.164062 0.10938,-0.273437 0.11718,-0.117188 0.28125,-0.117188 0.16406,0 0.27343,0.117188 0.11719,0.109375 0.11719,0.273437 v 2.578125 q 0,0.390625 0.27344,0.664063 0.27344,0.273437 0.66406,0.273437 h 2.10938 q 0.16406,0 0.27343,0.117188 0.11719,0.109375 0.11719,0.273437 0,0.164063 -0.11719,0.28125 -0.10937,0.109375 -0.27343,0.109375 h -2.10938 q -0.71094,0 -1.21875,-0.5 -0.5,-0.507812 -0.5,-1.21875 z m 5.78125,0 q 0,0.390625 0.27344,0.664063 0.27344,0.273437 0.66406,0.273437 h 1.25 q 0.39063,0 0.66406,-0.273437 0.27344,-0.273438 0.27344,-0.664063 v -1.25 q 0,-0.390625 -0.27344,-0.664062 -0.27343,-0.273438 -0.66406,-0.273438 h -1.25 q -0.39062,0 -0.66406,0.273438 -0.27344,0.273437 -0.27344,0.664062 z m -0.78125,0 v -1.25 q 0,-0.710937 0.5,-1.210937 0.50781,-0.507813 1.21875,-0.507813 h 1.25 q 0.71094,0 1.21094,0.507813 0.50781,0.5 0.50781,1.210937 v 1.25 q 0,0.710938 -0.50781,1.21875 -0.5,0.5 -1.21094,0.5 h -1.25 q -0.71094,0 -1.21875,-0.5 -0.5,-0.507812 -0.5,-1.21875 z m 5.46875,0 v -2.578125 q 0,-0.164062 0.10938,-0.273437 0.11718,-0.117188 0.28125,-0.117188 0.16406,0 0.27343,0.117188 0.11719,0.109375 0.11719,0.273437 v 1.5625 h 3.04688 q 0.16406,0 0.27343,0.117188 0.11719,0.109375 0.11719,0.273437 0,0.164063 -0.11719,0.28125 -0.10937,0.109375 -0.27343,0.109375 h -3.04688 v 0.234375 q 0,0.390625 0.27344,0.664063 0.27344,0.273437 0.66406,0.273437 h 2.10938 q 0.16406,0 0.27343,0.117188 0.11719,0.109375 0.11719,0.273437 0,0.164063 -0.11719,0.28125 -0.10937,0.109375 -0.27343,0.109375 h -2.10938 q -0.71094,0 -1.21875,-0.5 -0.5,-0.507812 -0.5,-1.21875 z m 5.432,1.15875 q 0,-0.368 0.2,-0.52 0.208,-0.152 0.496,-0.152 0.28,0 0.48,0.152 0.208,0.152 0.208,0.52 0,0.352 -0.208,0.512 -0.2,0.152 -0.48,0.152 -0.288,0 -0.496,-0.152 -0.2,-0.16 -0.2,-0.512 z"
       id="use20"
       style="font-weight:bold;font-size:8px;line-height:75%;font-family:'Assegai Rounded';-inkscape-font-specification:'Assegai Rounded Bold';letter-spacing:0px;white-space:pre;inline-size:43.2235;fill:#adb345;stroke-width:5;stroke-linecap:round;stroke-linejoin:round;paint-order:markers fill stroke"
       aria-label="become a pilot." /></g></svg>
